<svg width="56" height="55" viewBox="0 0 56 55" fill="none" xmlns="http://www.w3.org/2000/svg">
<path d="M48.4279 3.73083C48.2592 3.30565 47.9682 2.94129 47.5925 2.68476C47.2168 2.42824 46.7736 2.29131 46.32 2.29166H10.0164C9.56289 2.29131 9.11967 2.42824 8.74395 2.68476C8.36822 2.94129 8.07723 3.30565 7.90852 3.73083L3.37057 15.1892C3.26424 15.4606 3.20958 15.7498 3.20947 16.0417V50.4167C3.20947 51.0245 3.44852 51.6073 3.87404 52.0371C4.29956 52.4669 4.87668 52.7083 5.47845 52.7083H50.858C51.4598 52.7083 52.0369 52.4669 52.4624 52.0371C52.8879 51.6073 53.127 51.0245 53.127 50.4167V16.0417C53.1269 15.7498 53.0722 15.4606 52.9659 15.1892L48.4279 3.73083ZM11.5525 6.875H44.7839L47.5067 13.75H8.82973L11.5525 6.875ZM7.74743 48.125V18.3333H48.589V48.125H7.74743ZM25.8992 41.25C25.8992 41.8578 25.6602 42.4407 25.2347 42.8705C24.8092 43.3002 24.232 43.5417 23.6303 43.5417H14.5544C13.9526 43.5417 13.3755 43.3002 12.9499 42.8705C12.5244 42.4407 12.2854 41.8578 12.2854 41.25C12.2854 40.6422 12.5244 40.0593 12.9499 39.6295C13.3755 39.1998 13.9526 38.9583 14.5544 38.9583H23.6303C24.232 38.9583 24.8092 39.1998 25.2347 39.6295C25.6602 40.0593 25.8992 40.6422 25.8992 41.25Z" fill="black"/>
</svg>
