<svg width="53" height="53" viewBox="0 0 53 53" fill="none" xmlns="http://www.w3.org/2000/svg">
<path d="M0 1.76667C0 0.790964 0.790963 0 1.76667 0H7.06666C7.87733 0 8.58397 0.551725 8.78058 1.33819L10.2127 7.06667H51.2333C51.7589 7.06667 52.2571 7.30066 52.5928 7.70508C52.9284 8.1095 53.0666 8.64235 52.9697 9.15891L47.6697 37.4256C47.5131 38.2612 46.7835 38.8667 45.9333 38.8667H42.4H17.6667H14.1333C13.2832 38.8667 12.5536 38.2612 12.3969 37.4256L7.10663 9.2107L5.68729 3.53333H1.76667C0.790963 3.53333 0 2.74237 0 1.76667ZM10.962 10.6L15.5995 35.3333H44.4671L49.1046 10.6H10.962ZM17.6667 38.8667C13.7639 38.8667 10.6 42.0305 10.6 45.9333C10.6 49.8361 13.7639 53 17.6667 53C21.5695 53 24.7333 49.8361 24.7333 45.9333C24.7333 42.0305 21.5695 38.8667 17.6667 38.8667ZM42.4 38.8667C38.4972 38.8667 35.3333 42.0305 35.3333 45.9333C35.3333 49.8361 38.4972 53 42.4 53C46.3028 53 49.4667 49.8361 49.4667 45.9333C49.4667 42.0305 46.3028 38.8667 42.4 38.8667ZM17.6667 42.4C19.6181 42.4 21.2 43.9819 21.2 45.9333C21.2 47.8847 19.6181 49.4667 17.6667 49.4667C15.7153 49.4667 14.1333 47.8847 14.1333 45.9333C14.1333 43.9819 15.7153 42.4 17.6667 42.4ZM42.4 42.4C44.3514 42.4 45.9333 43.9819 45.9333 45.9333C45.9333 47.8847 44.3514 49.4667 42.4 49.4667C40.4486 49.4667 38.8667 47.8847 38.8667 45.9333C38.8667 43.9819 40.4486 42.4 42.4 42.4Z" fill="black"/>
</svg>
