<svg width="35" height="31" viewBox="0 0 35 31" fill="none" xmlns="http://www.w3.org/2000/svg">
<path d="M12.9961 20.3438C12.9961 19.8087 13.4705 19.375 14.0557 19.375H20.4131C20.9983 19.375 21.4727 19.8087 21.4727 20.3438C21.4727 20.8788 20.9983 21.3125 20.4131 21.3125H14.0557C13.4705 21.3125 12.9961 20.8788 12.9961 20.3438Z" fill="black"/>
<path d="M8.75781 14.5312C8.75781 13.9962 9.2322 13.5625 9.81738 13.5625H24.6514C25.2366 13.5625 25.7109 13.9962 25.7109 14.5312C25.7109 15.0663 25.2366 15.5 24.6514 15.5H9.81738C9.2322 15.5 8.75781 15.0663 8.75781 14.5312Z" fill="black"/>
<path d="M4.51953 8.71875C4.51953 8.18372 4.99392 7.75 5.5791 7.75H28.8896C29.4748 7.75 29.9492 8.18372 29.9492 8.71875C29.9492 9.25378 29.4748 9.6875 28.8896 9.6875H5.5791C4.99392 9.6875 4.51953 9.25378 4.51953 8.71875Z" fill="black"/>
</svg>
