<svg width="57" height="57" viewBox="0 0 57 57" fill="none" xmlns="http://www.w3.org/2000/svg">
<path d="M24.9375 49.875C24.9375 49.875 21.375 49.875 21.375 46.3125C21.375 42.75 24.9375 32.0625 39.1875 32.0625C53.4375 32.0625 57 42.75 57 46.3125C57 49.875 53.4375 49.875 53.4375 49.875H24.9375Z" fill="black"/>
<path d="M39.1875 28.5C45.09 28.5 49.875 23.715 49.875 17.8125C49.875 11.91 45.09 7.125 39.1875 7.125C33.285 7.125 28.5 11.91 28.5 17.8125C28.5 23.715 33.285 28.5 39.1875 28.5Z" fill="black"/>
<path fillRule="evenodd" clipRule="evenodd" d="M18.5833 49.875C18.0817 48.8629 17.8125 47.6632 17.8125 46.3125C17.8125 41.4837 20.2316 36.5176 24.7093 33.0599C22.7505 32.4333 20.4669 32.0625 17.8125 32.0625C3.5625 32.0625 0 42.75 0 46.3125C0 49.875 3.5625 49.875 3.5625 49.875H18.5833Z" fill="black"/>
<path d="M16.0312 28.5C20.95 28.5 24.9375 24.5125 24.9375 19.5938C24.9375 14.675 20.95 10.6875 16.0312 10.6875C11.1125 10.6875 7.125 14.675 7.125 19.5938C7.125 24.5125 11.1125 28.5 16.0312 28.5Z" fill="black"/>
</svg>
