<svg width="55" height="55" viewBox="0 0 55 55" fill="none" xmlns="http://www.w3.org/2000/svg">
<path d="M37.8125 6.875C37.8125 4.97652 39.3515 3.4375 41.25 3.4375H48.125C50.0235 3.4375 51.5625 4.97652 51.5625 6.875V48.125H53.2812C54.2305 48.125 55 48.8945 55 49.8438C55 50.793 54.2305 51.5625 53.2812 51.5625H1.71875C0.769511 51.5625 0 50.793 0 49.8438C0 48.8945 0.769511 48.125 1.71875 48.125H3.4375V37.8125C3.4375 35.914 4.97652 34.375 6.875 34.375H13.75C15.6485 34.375 17.1875 35.914 17.1875 37.8125V48.125H20.625V24.0625C20.625 22.164 22.164 20.625 24.0625 20.625H30.9375C32.836 20.625 34.375 22.164 34.375 24.0625V48.125H37.8125V6.875ZM41.25 48.125H48.125V6.875H41.25V48.125ZM30.9375 48.125V24.0625H24.0625V48.125H30.9375ZM13.75 48.125V37.8125H6.875V48.125H13.75Z" fill="black"/>
</svg>
