<svg width="16" height="17" viewBox="0 0 16 17" fill="none" xmlns="http://www.w3.org/2000/svg">
<path d="M0.505588 1.23397C0.941099 0.810897 1.6472 0.810897 2.08271 1.23397L7.98533 6.96793L13.8879 1.23397C14.3234 0.810897 15.0296 0.810897 15.4651 1.23397C15.9006 1.65703 15.9006 2.34296 15.4651 2.76603L9.56245 8.5L15.4651 14.234C15.9006 14.657 15.9006 15.343 15.4651 15.766C15.0296 16.1891 14.3234 16.1891 13.8879 15.766L7.98533 10.0321L2.08271 15.766C1.6472 16.1891 0.941099 16.1891 0.505588 15.766C0.0700773 15.343 0.0700773 14.657 0.505588 14.234L6.4082 8.5L0.505588 2.76603C0.0700773 2.34296 0.0700773 1.65703 0.505588 1.23397Z" fill="black"/>
</svg>
